<svg width="48" height="48" viewBox="0 0 48 48" fill="none" xmlns="http://www.w3.org/2000/svg">
<path d="M46.2426 19.7574C48.5858 22.1005 48.5858 25.8995 46.2426 28.2426C43.8995 30.5858 40.1005 30.5858 37.7574 28.2426C35.4142 25.8995 35.4142 22.1005 37.7574 19.7574C40.1005 17.4142 43.8995 17.4142 46.2426 19.7574Z" fill="black"/>
<path d="M28.2426 19.7574C30.5857 22.1005 30.5857 25.8995 28.2426 28.2426C25.8995 30.5858 22.1005 30.5858 19.7574 28.2426C17.4142 25.8995 17.4142 22.1005 19.7574 19.7574C22.1005 17.4142 25.8995 17.4142 28.2426 19.7574Z" fill="black"/>
<path d="M10.2426 19.7574C12.5858 22.1005 12.5858 25.8995 10.2426 28.2426C7.89949 30.5858 4.10049 30.5858 1.75735 28.2426C-0.585784 25.8995 -0.585784 22.1005 1.75735 19.7574C4.10049 17.4142 7.89949 17.4142 10.2426 19.7574Z" fill="black"/>
</svg>
