<svg width="48" height="48" viewBox="0 0 48 48" fill="none" xmlns="http://www.w3.org/2000/svg">
<path d="M37.7135 8.21976C34.8004 3.19251 29.6262 0.121172 23.8723 0.00379687C23.6267 -0.00126562 23.3795 -0.00126562 23.1337 0.00379687C17.3799 0.121172 12.2057 3.19251 9.2925 8.21976C6.31482 13.3584 6.23335 19.5309 9.07454 24.7313L20.9773 46.5175C20.9826 46.5272 20.988 46.5368 20.9935 46.5464C21.5172 47.4566 22.4554 48 23.5032 48C24.551 48 25.4891 47.4565 26.0127 46.5464C26.0182 46.5368 26.0236 46.5272 26.0289 46.5175L37.9317 24.7313C40.7727 19.5309 40.6912 13.3584 37.7135 8.21976V8.21976ZM23.503 21.75C19.7811 21.75 16.753 18.722 16.753 15C16.753 11.2781 19.7811 8.25004 23.503 8.25004C27.225 8.25004 30.253 11.2781 30.253 15C30.253 18.722 27.2251 21.75 23.503 21.75Z" fill="black"/>
</svg>
