<svg width="48" height="48" viewBox="0 0 48 48" fill="none" xmlns="http://www.w3.org/2000/svg">
<path d="M44.6294 1.86675C44.6247 0.825563 43.7734 -0.000562213 42.7538 2.87079e-07H36.7961C35.7606 2.87079e-07 34.9211 0.839438 34.9211 1.875C34.9211 2.91056 35.7606 3.75 36.7961 3.75H38.2281L31.8144 10.1636C29.8326 8.71922 27.394 7.86553 24.7596 7.86553C19.4033 7.86553 14.8557 11.3918 13.3148 16.2445C7.49278 17.0685 3 22.0839 3 28.1298C3 34.1115 7.39781 39.0848 13.1298 39.9878V41.9857H12.7405C11.705 41.9857 10.8655 42.8252 10.8655 43.8607C10.8655 44.8963 11.705 45.7357 12.7405 45.7357H13.1298V46.125C13.1298 47.1606 13.9692 48 15.0048 48C16.0403 48 16.8798 47.1606 16.8798 46.125V45.7357H17.269C18.3046 45.7357 19.144 44.8963 19.144 43.8607C19.144 42.8252 18.3046 41.9857 17.269 41.9857H16.8798V39.9878C21.4012 39.2755 25.0921 36.0305 26.4495 31.7555C32.2716 30.9315 36.7643 25.9161 36.7643 19.8702C36.7643 17.2357 35.9107 14.7971 34.4663 12.8153L40.8799 6.40172V7.83375C40.8799 8.86931 41.7193 9.70875 42.7549 9.70875C43.7904 9.70875 44.6299 8.86931 44.6299 7.83375V1.875C44.6298 1.87219 44.6294 1.86956 44.6294 1.86675ZM15.0048 36.3846C10.453 36.3846 6.75 32.6815 6.75 28.1298C6.75 24.3562 9.29513 21.1661 12.7589 20.1856C12.9065 25.8811 17.0408 30.6013 22.4679 31.6547C21.1434 34.448 18.2962 36.3846 15.0048 36.3846ZM16.5067 20.0123C20.2987 20.7122 23.1903 24.0121 23.2578 27.9878C19.4658 27.2878 16.5742 23.988 16.5067 20.0123ZM27.0054 27.8144C26.8579 22.1189 22.7236 17.3987 17.2964 16.3453C18.621 13.5519 21.4682 11.6154 24.7597 11.6154C29.3114 11.6154 33.0144 15.3185 33.0144 19.8702C33.0143 23.6438 30.4692 26.8339 27.0054 27.8144Z" fill="black"/>
</svg>
