<svg width="48" height="48" viewBox="0 0 48 48" fill="none" xmlns="http://www.w3.org/2000/svg">
<path d="M28.9659 10.9331C31.1853 12.3247 32.7416 14.6794 33.0249 17.4128C33.9301 17.8357 34.9346 18.0789 35.9997 18.0789C39.888 18.0789 43.0395 14.9274 43.0395 11.0398C43.0395 7.15148 39.888 4 35.9997 4C32.1486 4.0012 29.0246 7.09637 28.9659 10.9331ZM24.354 25.3469C28.2423 25.3469 31.3938 22.1948 31.3938 18.3072C31.3938 14.4195 28.2417 11.268 24.354 11.268C20.4663 11.268 17.3131 14.4201 17.3131 18.3078C17.3131 22.1954 20.4663 25.3469 24.354 25.3469ZM27.3402 25.8267H21.3667C16.3966 25.8267 12.3531 29.8708 12.3531 34.8409V42.146L12.3717 42.2604L12.8749 42.418C17.618 43.9 21.7387 44.3942 25.1304 44.3942C31.755 44.3942 35.5948 42.5054 35.8314 42.385L36.3016 42.1472H36.3519V34.8409C36.3537 29.8708 32.3103 25.8267 27.3402 25.8267ZM38.987 18.5593H33.0597C32.9956 20.9309 31.9832 23.0664 30.382 24.6023C34.7999 25.916 38.0322 30.0127 38.0322 34.8517V37.1028C43.8847 36.8884 47.2572 35.2297 47.4794 35.1182L47.9497 34.8798H48V27.5723C48 22.6028 43.9566 18.5593 38.987 18.5593ZM12.0015 18.0801C13.3787 18.0801 14.66 17.6782 15.7454 16.9935C16.0905 14.7429 17.2969 12.7763 19.0203 11.4369C19.0275 11.3051 19.0401 11.1745 19.0401 11.0416C19.0401 7.15328 15.888 4.0018 12.0015 4.0018C8.11262 4.0018 4.96174 7.15328 4.96174 11.0416C4.96174 14.928 8.11262 18.0801 12.0015 18.0801ZM18.3236 24.6023C16.7302 23.0742 15.7215 20.9501 15.6478 18.5929C15.4279 18.5767 15.2105 18.5593 14.9864 18.5593H9.01355C4.04343 18.5593 0 22.6028 0 27.5723V34.8786L0.0185698 34.9912L0.521752 35.15C4.32677 36.3379 7.72265 36.8854 10.6723 37.0579V34.8517C10.6735 30.0127 13.9046 25.9172 18.3236 24.6023Z" fill="black"/>
</svg>
