<svg width="48" height="48" viewBox="0 0 48 48" fill="none" xmlns="http://www.w3.org/2000/svg">
<path d="M24 2C11.87 2 2 11.87 2 24C2 36.13 11.87 46 24 46C36.13 46 46 36.13 46 24C46 11.87 36.13 2 24 2ZM30.5 19C31.328 19 32 19.672 32 20.5C32 21.328 31.328 22 30.5 22H28.156C27.342 24.496 25.08 26.346 22.35 26.492L29.346 31.262C30.03 31.728 30.206 32.662 29.74 33.346C29.45 33.77 28.978 34 28.498 34C28.206 34 27.914 33.916 27.654 33.74L16.654 26.24C16.112 25.868 15.872 25.188 16.066 24.558C16.26 23.928 16.842 23.5 17.5 23.5H22C23.186 23.5 24.232 22.904 24.864 22H17.5C16.672 22 16 21.328 16 20.5C16 19.672 16.672 19 17.5 19H25.336C24.904 17.56 23.58 16.5 22 16.5H17.5C16.672 16.5 16 15.828 16 15C16 14.172 16.672 13.5 17.5 13.5H22H30.5C31.328 13.5 32 14.172 32 15C32 15.828 31.328 16.5 30.5 16.5H27.46C27.938 17.244 28.256 18.092 28.398 19H30.5Z" fill="black"/>
</svg>
