<svg width="48" height="48" viewBox="0 0 48 48" fill="none" xmlns="http://www.w3.org/2000/svg">
<path d="M23.7203 23.1216C26.8968 23.1216 29.6474 21.9823 31.8948 19.7345C34.1422 17.4871 35.2815 14.7373 35.2815 11.5604C35.2815 8.38468 34.1422 5.63446 31.8945 3.38632C29.6467 1.13927 26.8965 0 23.7203 0C20.5435 0 17.7936 1.13927 15.5462 3.38668C13.2988 5.6341 12.1592 8.38431 12.1592 11.5604C12.1592 14.7373 13.2988 17.4875 15.5466 19.7349C17.7944 21.982 20.5446 23.1216 23.7203 23.1216V23.1216Z" fill="black"/>
<path d="M43.9492 36.9097C43.8844 35.9744 43.7533 34.9541 43.5603 33.8767C43.3654 32.7913 43.1146 31.7652 42.8143 30.8273C42.5041 29.858 42.0823 28.9007 41.5608 27.9834C41.0195 27.0312 40.3838 26.2021 39.6704 25.5199C38.9245 24.8061 38.0111 24.2323 36.955 23.8137C35.9025 23.3973 34.7361 23.1864 33.4885 23.1864C32.9985 23.1864 32.5246 23.3874 31.6095 23.9833C31.0462 24.3506 30.3874 24.7754 29.6521 25.2452C29.0233 25.6458 28.1715 26.0212 27.1194 26.3611C26.0929 26.6932 25.0507 26.8617 24.022 26.8617C22.9933 26.8617 21.9515 26.6932 20.9239 26.3611C19.8729 26.0216 19.0211 25.6462 18.393 25.2456C17.6647 24.7801 17.0055 24.3553 16.4338 23.9829C15.5198 23.3871 15.0455 23.186 14.5556 23.186C13.3075 23.186 12.1415 23.3973 11.0894 23.8141C10.034 24.2319 9.12031 24.8058 8.37361 25.5202C7.66061 26.2029 7.02451 27.0316 6.48398 27.9834C5.96287 28.9007 5.541 29.8576 5.23046 30.8277C4.93053 31.7655 4.67968 32.7913 4.48486 33.8767C4.29187 34.9526 4.16077 35.9733 4.09595 36.9108C4.03223 37.8292 4 38.7824 4 39.7452C4 42.2508 4.7965 44.2792 6.36716 45.7752C7.91842 47.2513 9.97101 48.0002 12.4671 48.0002H35.5791C38.0752 48.0002 40.1271 47.2517 41.6787 45.7752C43.2497 44.2803 44.0462 42.2515 44.0462 39.7448C44.0459 38.7777 44.0133 37.8237 43.9492 36.9097V36.9097Z" fill="black"/>
</svg>
