<svg width="48" height="48" viewBox="0 0 48 48" fill="none" xmlns="http://www.w3.org/2000/svg">
<path d="M23.6366 13.0909C26.0475 13.0909 28.0003 11.1382 28.0003 8.72724C28.0003 7.90906 27.7712 7.13455 27.3785 6.48L23.6366 0L19.8948 6.48C19.502 7.13455 19.2729 7.90906 19.2729 8.72724C19.2729 11.1382 21.2257 13.0909 23.6366 13.0909Z" fill="black"/>
<path d="M36.7273 19.6366H25.8182V15.2729H21.4545V19.6366H10.5455C6.93451 19.6366 4 22.5711 4 26.1821V29.542C4 31.8984 5.91997 33.8183 8.27633 33.8183C9.42179 33.8183 10.4908 33.3711 11.2982 32.5638L15.9672 27.9056L20.6255 32.5528C22.24 34.1674 25.0546 34.1674 26.6691 32.5528L31.3381 27.9056L35.9964 32.5528C36.8036 33.3601 37.8728 33.8074 39.0182 33.8074C41.3746 33.8074 43.2945 31.8874 43.2945 29.5311V26.1821C43.2728 22.5711 40.3382 19.6366 36.7273 19.6366Z" fill="black"/>
<path d="M33.6619 34.8762L31.3165 32.5308L28.9601 34.8762C26.1128 37.7235 21.1383 37.7235 18.291 34.8762L15.9455 32.5308L13.5891 34.8762C12.1818 36.3052 10.2946 37.0907 8.27633 37.0907C6.69448 37.0907 5.22175 36.5888 4 35.7489V45.818C4 47.018 4.98182 47.9998 6.18179 47.9998H41.0909C42.2908 47.9998 43.2727 47.018 43.2727 45.818V35.749C42.0508 36.5889 40.589 37.0908 38.9963 37.0908C36.9782 37.0908 35.0909 36.3053 33.6619 34.8762Z" fill="black"/>
</svg>
