<svg width="48" height="48" viewBox="0 0 48 48" fill="none" xmlns="http://www.w3.org/2000/svg">
<path d="M6.81018 9.85679C5.72202 10.0465 4.99711 11.0818 5.19106 12.1692L5.61813 14.5637C5.81207 15.6511 6.85142 16.3789 7.93958 16.1892L14.9914 14.96L15.5715 8.32954L6.81018 9.85679Z" fill="black"/>
<path d="M6.81018 9.85679C5.72202 10.0465 4.99711 11.0818 5.19106 12.1692L5.61813 14.5637C5.81207 15.6511 6.85142 16.3789 7.93958 16.1892L14.9914 14.96L15.5715 8.32954L6.81018 9.85679Z" fill="black"/>
<path d="M28.2013 12.6573L17.4683 14.5282L18.0484 7.89778L28.7814 6.02684L28.2013 12.6573Z" fill="black"/>
<path d="M28.2013 12.6573L17.4683 14.5282L18.0484 7.89778L28.7814 6.02684L28.2013 12.6573Z" fill="black"/>
<path d="M31.2582 5.59508L30.6781 12.2255L40.4693 10.5187C41.5574 10.3291 42.2823 9.29376 42.0884 8.20635L41.6613 5.81179C41.4674 4.72438 40.428 3.99663 39.3399 4.18631L31.2582 5.59508Z" fill="black"/>
<path d="M31.2582 5.59508L30.6781 12.2255L40.4693 10.5187C41.5574 10.3291 42.2823 9.29376 42.0884 8.20635L41.6613 5.81179C41.4674 4.72438 40.428 3.99663 39.3399 4.18631L31.2582 5.59508Z" fill="black"/>
<path fill-rule="evenodd" clip-rule="evenodd" d="M5.67866 24.0472C5.67866 21.838 7.46952 20.0472 9.67866 20.0472H38.9356C41.1448 20.0472 42.9356 21.838 42.9356 24.0472V40.1558C42.9356 42.3649 41.1448 44.1558 38.9356 44.1558H9.67866C7.46952 44.1558 5.67866 42.3649 5.67866 40.1558V24.0472ZM21.0688 28.3654C21.0688 27.8755 21.6068 27.576 22.0232 27.8342L28.9143 32.1076C29.3085 32.352 29.3085 32.9255 28.9143 33.1699L22.0232 37.4433C21.6068 37.7015 21.0688 37.402 21.0688 36.9121V28.3654Z" fill="black"/>
<path fill-rule="evenodd" clip-rule="evenodd" d="M5.67866 24.0472C5.67866 21.838 7.46952 20.0472 9.67866 20.0472H38.9356C41.1448 20.0472 42.9356 21.838 42.9356 24.0472V40.1558C42.9356 42.3649 41.1448 44.1558 38.9356 44.1558H9.67866C7.46952 44.1558 5.67866 42.3649 5.67866 40.1558V24.0472ZM21.0688 28.3654C21.0688 27.8755 21.6068 27.576 22.0232 27.8342L28.9143 32.1076C29.3085 32.352 29.3085 32.9255 28.9143 33.1699L22.0232 37.4433C21.6068 37.7015 21.0688 37.402 21.0688 36.9121V28.3654Z" fill="black"/>
</svg>
