<svg width="48" height="48" viewBox="0 0 48 48" fill="none" xmlns="http://www.w3.org/2000/svg">
<path d="M45.9587 17.3421V10.804V10.0879C45.9587 6.34132 42.6522 3.28906 38.5437 3.18362V3.18449V4.84315V4.84472V6.51224V6.51554V7.4629C38.5437 9.89453 36.5656 11.8726 34.1344 11.8726C31.7032 11.8726 29.7251 9.89453 29.7251 7.4629V6.49331V4.83308V3.17285H17.2221V4.83308V6.49331V7.4629C17.2221 9.89453 15.244 11.8726 12.8126 11.8726C10.3813 11.8726 8.40334 9.89453 8.40334 7.4629V6.52978V6.52405V4.85114V4.84958V3.19109V3.18935C4.36273 3.36045 1.13086 6.38474 1.13086 10.087V10.8032V17.3412V40.3692C1.13086 44.5759 4.55432 48.0002 8.76134 48.0002H38.3279C42.5344 48.0002 45.958 44.5759 45.958 40.3692V17.3421H45.9587ZM42.6381 40.3701C42.6381 42.747 40.7047 44.6798 38.3279 44.6798H8.76221C6.38564 44.6798 4.45236 42.747 4.45236 40.3701V17.3421H42.6381V40.3701Z" fill="black"/>
<path d="M10.894 1.91921V3.17246V4.83269V6.49292V7.46251C10.894 8.52278 11.753 9.38173 12.8133 9.38173C13.8732 9.38173 14.7325 8.52278 14.7325 7.46251V6.49292V4.83269V3.17246V1.91921C14.7326 0.858948 13.8734 0 12.8134 0C11.753 0.000868502 10.894 0.859817 10.894 1.91921Z" fill="black"/>
<path d="M34.1349 0.000976562C33.0746 0.000976562 32.2153 0.859925 32.2153 1.92019V3.17344V4.83367V6.49389V7.46349C32.2153 8.52376 33.0745 9.3827 34.1349 9.3827C35.1953 9.3827 36.0546 8.52376 36.0546 7.46349V6.49303V4.8328V3.17257V1.91932C36.0531 0.859925 35.1946 0.000976562 34.1349 0.000976562Z" fill="black"/>
<path d="M17.9899 40.2757C20.1547 40.2757 21.7895 39.671 22.8948 38.4614C23.9981 37.2519 24.551 35.8494 24.551 34.254C24.551 32.7364 24.0787 31.5398 23.1331 30.6643C22.8766 30.4291 22.6443 30.241 22.4368 30.1017C22.0567 29.8455 22.0282 29.6624 22.386 29.3852C22.587 29.2287 22.7845 29.0399 22.9778 28.8175C23.6369 28.0546 23.9664 27.1184 23.9664 26.0077C23.9664 24.4399 23.4156 23.1886 22.3107 22.2563C21.2057 21.3241 19.7529 20.8584 17.9516 20.8584C16.982 20.8584 16.1632 20.9755 15.496 21.2094C14.8292 21.4438 14.2541 21.7813 13.7686 22.224C13.1191 22.8483 12.643 23.5289 12.339 24.2666C12.1393 24.8551 12.0005 25.4688 11.9239 26.105C11.8692 26.5606 12.2312 26.932 12.6892 26.932H14.4881C14.9466 26.932 15.2999 26.5575 15.3665 26.1035C15.4472 25.5521 15.6279 25.0868 15.9077 24.7083C16.3187 24.1538 16.9612 23.8757 17.8346 23.8757C18.5959 23.8757 19.1851 24.101 19.6051 24.552C20.0234 25.0027 20.2337 25.5879 20.2337 26.3077C20.2337 27.4185 19.8227 28.1554 19.0024 28.5193C18.6457 28.6813 18.0835 28.7875 17.3182 28.8385C16.861 28.8677 16.4889 29.2422 16.4889 29.6996V30.6926C16.4889 31.1507 16.8618 31.5187 17.3199 31.5437C18.1309 31.5868 18.7536 31.6963 19.1861 31.8736C20.1889 32.2903 20.6904 33.1189 20.6904 34.3575C20.6904 35.2948 20.4196 36.0113 19.8794 36.5107C19.3392 37.0092 18.7046 37.2581 17.9784 37.2581C16.7932 37.2581 15.9753 36.8034 15.5261 35.893C15.3793 35.5924 15.2772 35.2446 15.2192 34.8489C15.1526 34.3949 14.7915 34.0202 14.3322 34.0202H12.3508C11.8925 34.0202 11.5313 34.3916 11.5819 34.8472C11.7059 35.9724 11.9889 36.9104 12.4294 37.6601C13.4679 39.4042 15.322 40.2757 17.9899 40.2757Z" fill="black"/>
<path d="M28.3064 26.8027H31.0814C31.5394 26.8027 31.9113 27.1741 31.9113 27.6328V38.9775C31.9113 39.4356 32.2836 39.8076 32.7415 39.8076H34.8794C35.3374 39.8076 35.7093 39.4354 35.7093 38.9775V21.7803C35.7093 21.3223 35.3372 20.9502 34.8794 20.9502H33.4435C32.9855 20.9502 32.6077 21.1229 32.5639 21.3303C32.5405 21.4397 32.5097 21.5646 32.47 21.7039C32.3063 22.2674 32.063 22.7181 31.7435 23.0561C31.2766 23.5498 30.6709 23.8793 29.9277 24.0447C29.5808 24.1225 29.0392 24.185 28.3046 24.2343C27.8474 24.2635 27.4761 24.6511 27.4761 25.1082V25.9708C27.4761 26.4306 27.849 26.8027 28.3064 26.8027Z" fill="black"/>
</svg>
