<svg width="48" height="48" viewBox="0 0 48 48" fill="none" xmlns="http://www.w3.org/2000/svg">
<g clip-path="url(#clip0)">
<path d="M13.0039 12.8438H12.4021L11.2773 18.4688H14.1287L13.0039 12.8438Z" fill="black"/>
<path d="M35.7539 24.0938C36.3611 25.7249 37.1688 27.0453 38.0626 28.1688C38.9564 27.0453 39.8578 25.7248 40.465 24.0938H35.7539Z" fill="black"/>
<path d="M43.7816 8.53125H26.3176L29.959 37.7512C30.0234 38.9463 29.6967 40.0715 28.9167 40.9523L22.75 48H43.7816C46.1079 48 48.0003 46.1076 48.0003 43.7812V12.8438C48.0003 10.5174 46.1079 8.53125 43.7816 8.53125ZM43.7816 24.0938H43.406C42.6059 26.6609 41.337 28.6697 40.0183 30.2533C41.0513 31.1977 42.156 31.9725 43.2543 32.8402C43.8599 33.325 43.9588 34.2094 43.4726 34.8164C42.9887 35.4225 42.1008 35.5208 41.4964 35.0348C40.3031 34.0928 39.183 33.3044 38.0628 32.2765C36.9427 33.3044 35.9163 34.0928 34.723 35.0348C34.1186 35.5208 33.2308 35.4225 32.7468 34.8164C32.2607 34.2094 32.3596 33.325 32.9652 32.8402C34.0635 31.9725 35.0744 31.1977 36.1074 30.2533C34.7887 28.6698 33.6135 26.661 32.8134 24.0938H32.4378C31.6606 24.0938 31.0316 23.4648 31.0316 22.6875C31.0316 21.9102 31.6606 21.2812 32.4378 21.2812H36.6566V19.875C36.6566 19.0977 37.2856 18.4688 38.0628 18.4688C38.8401 18.4688 39.4691 19.0977 39.4691 19.875V21.2812H43.7816C44.5589 21.2812 45.1878 21.9102 45.1878 22.6875C45.1878 23.4648 44.5589 24.0938 43.7816 24.0938Z" fill="black"/>
<path d="M22.8904 3.69553C22.6281 1.58887 20.8277 0 18.7046 0H4.21875C1.89244 0 0 1.89244 0 4.21875V35.3438C0 37.6701 1.89244 39.5625 4.21875 39.5625C12.6253 39.5625 18.6728 39.5625 26.3954 39.5625C26.8057 39.0936 27.1495 38.7999 27.1641 38.1878C27.1676 38.0344 22.9094 3.84778 22.8904 3.69553ZM17.2448 26.8788C16.4991 27.0323 15.7437 26.5481 15.59 25.776L14.6912 21.2812H10.7152L9.81638 25.776C9.66534 26.5368 8.93194 27.0367 8.16159 26.8788C7.40081 26.7263 6.90637 25.9862 7.05881 25.224L9.87122 11.1615C10.003 10.5051 10.5799 10.0312 11.25 10.0312H14.1562C14.8264 10.0312 15.4032 10.5051 15.535 11.1615L18.3475 25.224C18.5 25.9862 18.0056 26.7263 17.2448 26.8788Z" fill="black"/>
<path d="M16.4307 42.375L16.672 44.3045C16.8329 45.5966 17.6914 46.9143 19.1037 47.5722C21.7688 44.6384 20.1564 46.4133 23.8248 42.375H16.4307Z" fill="black"/>
</g>
<defs>
<clipPath id="clip0">
<rect width="48" height="48" fill="white"/>
</clipPath>
</defs>
</svg>
