<svg width="48" height="48" viewBox="0 0 48 48" fill="none" xmlns="http://www.w3.org/2000/svg">
<path d="M23.717 10C14.6542 10 6.43562 14.9583 0.371146 23.0119C-0.123715 23.6718 -0.123715 24.5936 0.371146 25.2534C6.43562 33.3167 14.6542 38.275 23.717 38.275C32.7797 38.275 40.9983 33.3167 47.0628 25.2631C47.5576 24.6033 47.5576 23.6815 47.0628 23.0217C40.9983 14.9583 32.7797 10 23.717 10ZM24.3671 34.093C18.3511 34.4714 13.3831 29.5131 13.7615 23.4874C14.072 18.5194 18.0988 14.4926 23.0669 14.1821C29.0828 13.8036 34.0508 18.762 33.6724 24.7876C33.3522 29.7459 29.3254 33.7728 24.3671 34.093ZM24.0663 29.4937C20.8254 29.6974 18.1473 27.0291 18.3608 23.7882C18.5258 21.1101 20.6993 18.9463 23.3774 18.7717C26.6182 18.5679 29.2963 21.2363 29.0828 24.4771C28.9082 27.1649 26.7346 29.3287 24.0663 29.4937Z" fill="black"/>
</svg>
