<svg width="48" height="48" viewBox="0 0 48 48" fill="none" xmlns="http://www.w3.org/2000/svg">
<path d="M25.847 21.0007V10.3354C28.1285 10.7202 30.2798 11.6564 32.119 13.0623C32.4857 13.3137 32.9159 13.4501 33.3613 13.4561C34.7884 13.4561 35.9519 12.3078 35.967 10.8807C35.97 10.2687 35.7307 9.6809 35.3004 9.24459C32.6432 6.96907 29.3102 5.62684 25.8167 5.42687V1.8515C25.8167 0.830368 24.9896 0.00320584 23.9684 0.00320584C23.9472 0.000205816 23.926 0.000205816 23.9048 0.000205816C22.8685 -0.0149818 22.0141 0.812274 21.9989 1.8515V5.30565C15.1815 5.79044 10.5458 10.0021 10.5458 15.6074C10.5458 22.4854 16.3936 24.3943 21.9989 25.9092V38.029C19.0416 37.6321 16.2541 36.405 13.9695 34.4841C13.5393 34.1417 13.006 33.9508 12.4545 33.9387C11.0577 34.0356 9.98213 35.2052 10.0002 36.6051C9.99722 37.2171 10.2366 37.8049 10.6668 38.2412C13.7968 41.0591 17.8205 42.6801 22.0291 42.8164V46.1494C22.0291 46.1705 22.0321 46.1918 22.0321 46.213C22.0806 47.2492 22.9623 48.0491 23.9985 47.9977C25.0196 47.9977 25.8468 47.1705 25.8468 46.1494V42.7559C34.1185 42.2105 37.4515 37.1808 37.4515 31.8481C37.4516 24.6973 31.4524 22.5157 25.847 21.0007ZM22.0293 20.0312C18.7266 19.0616 16.1512 18.0617 16.1512 15.2439C16.1512 12.426 18.4843 10.3959 22.0293 10.1233V20.0312V20.0312ZM25.847 38.0896V27.0607C29.2709 28.0303 31.9371 29.3331 31.9069 32.5145C31.9069 34.8173 30.3313 37.5443 25.847 38.0896Z" fill="black"/>
</svg>
