<svg width="48" height="48" viewBox="0 0 48 48" fill="none" xmlns="http://www.w3.org/2000/svg">
<path d="M32.727 0H15.2724C12.2615 0 9.81787 2.4436 9.81787 5.45452V42.5455C9.81787 45.5564 12.2615 48 15.2724 48H32.727C35.7379 48 38.1815 45.5564 38.1815 42.5455V5.45452C38.1815 2.4436 35.7379 0 32.727 0ZM23.9997 45.8182C22.1888 45.8182 20.727 44.3564 20.727 42.5455C20.727 40.7345 22.1888 39.2728 23.9997 39.2728C25.8107 39.2728 27.2725 40.7345 27.2725 42.5455C27.2725 44.3564 25.8106 45.8182 23.9997 45.8182ZM33.8179 37.091H14.1815V6.54546H33.8179V37.091Z" fill="black"/>
</svg>
